<svg xmlns="http://www.w3.org/2000/svg" width="32" height="32" viewBox="0 0 32 32" fill="none">
<path fill-rule="evenodd" clip-rule="evenodd" d="M9.66701 9.6665V9.50667C9.66701 6.61634 11.6238 4.09269 14.4231 3.37288C15.4578 3.10682 16.5429 3.10682 17.5776 3.37288C20.3769 4.09269 22.3337 6.61635 22.3337 9.50667V9.6665H24.3352C25.0969 9.6665 25.7433 10.2251 25.8538 10.9788L26.1453 12.9687C26.7194 16.8867 26.7194 20.8674 26.1453 24.7853C25.8681 26.6774 24.3424 28.1401 22.4403 28.3373L21.6018 28.4243C17.8775 28.8105 14.1232 28.8105 10.3988 28.4243L9.56034 28.3373C7.65829 28.1401 6.13257 26.6774 5.85535 24.7853C5.28129 20.8674 5.28129 16.8867 5.85535 12.9687L6.14691 10.9788C6.25734 10.2251 6.9038 9.6665 7.66551 9.6665H9.66701ZM14.9212 5.30987C15.6291 5.12783 16.3716 5.12783 17.0795 5.30987C18.9948 5.80237 20.3337 7.52908 20.3337 9.50667V9.6665H11.667V9.50667C11.667 7.52908 13.0059 5.80237 14.9212 5.30987ZM9.66701 11.6665V14.6665C9.66701 15.2188 10.1147 15.6665 10.667 15.6665C11.2193 15.6665 11.667 15.2188 11.667 14.6665V11.6665H20.3337V14.6665C20.3337 15.2188 20.7814 15.6665 21.3337 15.6665C21.886 15.6665 22.3337 15.2188 22.3337 14.6665V11.6665H23.9332L24.1665 13.2587C24.7123 16.9844 24.7123 20.7697 24.1665 24.4954C24.0219 25.4822 23.2261 26.2451 22.234 26.348L21.3955 26.435C17.8084 26.807 14.1923 26.807 10.6051 26.435L9.76664 26.348C8.77459 26.2451 7.97881 25.4822 7.83422 24.4954C7.28833 20.7697 7.28833 16.9844 7.83422 13.2587L8.06751 11.6665H9.66701Z" fill="black"/>
</svg>