<svg xmlns="http://www.w3.org/2000/svg" width="24" height="24" fill="none" class=""><path fill="#fff" fill-rule="evenodd" d="M7.25 7.25v-.12a4.75 4.75 0 0 1 9.5 0v.12h1.501c.571 0 1.056.419 1.14.984l.218 1.492a30.57 30.57 0 0 1 0 8.863 3.135 3.135 0 0 1-2.779 2.664l-.629.065c-2.793.29-5.609.29-8.402 0l-.629-.065a3.135 3.135 0 0 1-2.779-2.664 30.566 30.566 0 0 1 0-8.863l.219-1.492a1.151 1.151 0 0 1 1.139-.984H7.25Zm3.94-3.268a3.25 3.25 0 0 1 4.06 3.148v.12h-6.5v-.12a3.25 3.25 0 0 1 2.44-3.148ZM7.25 8.75V11a.75.75 0 0 0 1.5 0V8.75h6.5V11a.75.75 0 0 0 1.5 0V8.75h1.2l.175 1.194c.409 2.794.409 5.633 0 8.427a1.635 1.635 0 0 1-1.45 1.39l-.629.065c-2.69.28-5.402.28-8.092 0l-.63-.065a1.635 1.635 0 0 1-1.449-1.39 29.066 29.066 0 0 1 0-8.427L6.05 8.75h1.2Z" clip-rule="evenodd"></path></svg>