
<svg width="32" height="32" viewBox="0 0 32 32" fill="none" xmlns="http://www.w3.org/2000/svg">
<path d="M18.1214 16.0002L24.0589 10.0627C24.3407 9.78137 24.4992 9.39965 24.4996 9.00149C24.4999 8.60332 24.3421 8.22133 24.0608 7.93954C23.7795 7.65774 23.3978 7.49924 22.9996 7.49888C22.6014 7.49853 22.2195 7.65637 21.9377 7.93766L16.0002 13.8752L10.0627 7.93766C9.78087 7.65587 9.39868 7.49756 9.00016 7.49756C8.60165 7.49756 8.21945 7.65587 7.93766 7.93766C7.65587 8.21945 7.49756 8.60165 7.49756 9.00016C7.49756 9.39868 7.65587 9.78087 7.93766 10.0627L13.8752 16.0002L7.93766 21.9377C7.65587 22.2195 7.49756 22.6016 7.49756 23.0002C7.49756 23.3987 7.65587 23.7809 7.93766 24.0627C8.21945 24.3445 8.60165 24.5028 9.00016 24.5028C9.39868 24.5028 9.78087 24.3445 10.0627 24.0627L16.0002 18.1252L21.9377 24.0627C22.2195 24.3445 22.6016 24.5028 23.0002 24.5028C23.3987 24.5028 23.7809 24.3445 24.0627 24.0627C24.3445 23.7809 24.5028 23.3987 24.5028 23.0002C24.5028 22.6016 24.3445 22.2195 24.0627 21.9377L18.1214 16.0002Z" fill="black"/>
</svg>
