
<svg width="426" height="346" viewBox="0 0 426 346" fill="none" xmlns="http://www.w3.org/2000/svg">
<path d="M332.146 1.01602V1H331.146H6H3.33863L5.34148 2.75256L62.3914 52.6732L62.6742 52.9207H63.0499H331.146C354.273 52.9207 373.09 71.7408 373.09 94.8727V277.312C373.09 286.857 369.76 296.128 363.708 303.409L357.211 308.525L356.264 309.27L357.172 310.064L395.743 343.753L396.455 344.375L397.116 343.699L400.627 340.113L400.64 340.099L400.653 340.085C416.356 322.746 425 300.45 425 277.322V94.8834C425 43.4522 383.443 1.55423 332.146 1.01602Z" stroke="#838489" stroke-width="2"/>
</svg>
