
<svg width="28" height="25" viewBox="0 0 28 25" fill="none" xmlns="http://www.w3.org/2000/svg">
<path d="M23.9943 24.2309L6.02834 24.2309C2.70466 24.2309 -0.00184145 21.5241 -0.0018413 18.2001L-0.00184079 6.3538C-0.00184071 4.69463 0.654968 3.14872 1.83836 2.00486L1.92894 1.91992L2.1441 2.14077L4.10887 4.13969L4.21645 4.25294L4.1202 4.34355C3.55965 4.86451 3.24256 5.595 3.24256 6.3538L3.24256 18.2001C3.24256 19.7404 4.49389 20.9918 6.03399 20.9918L20.8462 20.9918L24 24.2309L23.9943 24.2309Z" fill="#C4FF2E"/>
<path d="M21.9659 0.330078L4.5548 0.330077L7.73692 3.56913L21.9659 3.56913C23.506 3.56913 24.7573 4.82058 24.7573 6.36083L24.7573 18.2072C24.7573 18.847 24.5365 19.4643 24.1289 19.9456L23.9929 20.1098L26.2691 22.4202L26.4333 22.239C27.4412 21.1234 27.9961 19.6908 27.9961 18.2072L27.9961 6.36083C27.9961 3.03684 25.2896 0.330078 21.9659 0.330078Z" fill="#C4FF2E"/>
</svg>
