<svg xmlns="http://www.w3.org/2000/svg" width="98" height="15" fill="none" class="hidden mob:block"><path fill="#C4FF2E" d="M14.626 14.77H3.675a3.681 3.681 0 0 1-3.676-3.677v-7.22C0 2.86.4 1.919 1.121 1.222l.055-.052.131.135 1.198 1.218.065.069-.058.055a1.675 1.675 0 0 0-.535 1.226v7.22c0 .939.762 1.702 1.701 1.702h9.029l1.922 1.974h-.003ZM13.387.201H2.774l1.94 1.974h8.673c.939 0 1.701.763 1.701 1.702v7.22c0 .39-.134.767-.383 1.06l-.082.1 1.387 1.409.1-.11c.614-.68.953-1.554.953-2.458v-7.22A3.681 3.681 0 0 0 13.386.2ZM34.8 9.468a3.681 3.681 0 0 0 3.676-3.676V3.873A3.681 3.681 0 0 0 34.8.197h-9.863l1.922 1.975H34.8c.939 0 1.702.762 1.702 1.701v1.92c0 .938-.763 1.7-1.702 1.7h-9.718a1.703 1.703 0 0 1-1.702-1.7V2.171h1.042L22.486.197h-1.084v14.459h1.975V9.05a3.648 3.648 0 0 0 1.701.417h6.316l5.125 5.188h2.899l-5.094-5.188h.476ZM73.92 2.513l1.974 2.002V0H73.92v2.513ZM73.92 14.656h1.974V7.118L73.92 5.105v9.55ZM43.292 2.513l1.977 2.002V0h-1.977v2.513ZM43.292 14.656h1.977V7.118l-1.977-2.013v9.55ZM64.344.197H53.79l1.953 1.975h8.601c.939 0 1.701.762 1.701 1.701v.725h1.974v-.725A3.681 3.681 0 0 0 64.344.197ZM56.861 8.474h9.18v2.623c0 .387-.127.75-.372 1.053l-.08.1 1.388 1.412.1-.11a3.647 3.647 0 0 0 .939-2.451V6.5H56.858v1.978l.003-.004Z"></path><path fill="#C4FF2E" d="M65.54 14.77H54.625a3.681 3.681 0 0 1-3.675-3.677v-7.22c0-1.012.404-1.954 1.139-2.658l.044-.045.121.128 1.19 1.211.073.076-.051.048a1.7 1.7 0 0 0-.542 1.243v7.22c0 .94.763 1.702 1.698 1.702h9.004l1.909 1.975.003-.004ZM81.796 14.655h1.977V4.997l-1.977-1.946v11.604ZM96.026 0v12.022L84.216 0h-2.761L95.86 14.655H98V0h-1.974Z"></path></svg>