<svg xmlns="http://www.w3.org/2000/svg" width="170" height="25" fill="none" class="mob:hidden"><path fill="#C4FF2E" d="M167.888 19.322a2.116 2.116 0 0 0-2.112 2.112 2.12 2.12 0 0 0 2.112 2.113A2.116 2.116 0 0 0 170 21.434a2.116 2.116 0 0 0-2.112-2.112Zm0 3.936a1.82 1.82 0 0 1-1.818-1.818 1.82 1.82 0 0 1 1.818-1.818 1.82 1.82 0 0 1 1.818 1.818 1.82 1.82 0 0 1-1.818 1.818Z"></path><path fill="#C4FF2E" d="M168.592 21.509a.602.602 0 0 0 .102-.357.572.572 0 0 0-.203-.465c-.136-.113-.318-.17-.555-.17h-.708v1.813h.26v-.55h.561l.391.555h.283l-.431-.606a.581.581 0 0 0 .295-.215l.005-.005Zm-.662.05h-.442v-.815h.442c.164 0 .289.034.374.108.085.068.13.17.13.3 0 .13-.045.232-.13.3-.085.073-.21.107-.374.107ZM23.994 24.23H6.028a6.04 6.04 0 0 1-6.03-6.03V6.354c0-1.66.657-3.205 1.84-4.35l.09-.084.216.22 1.965 2 .107.113-.096.09a2.748 2.748 0 0 0-.877 2.01V18.2a2.794 2.794 0 0 0 2.791 2.792h14.812L24 24.23h-.006ZM21.966.33H4.555l3.182 3.24h14.229a2.794 2.794 0 0 1 2.791 2.79v11.847c0 .64-.22 1.257-.628 1.739l-.136.164 2.276 2.31.164-.181a6.01 6.01 0 0 0 1.563-4.032V6.361a6.04 6.04 0 0 0-6.03-6.03ZM57.096 15.532a6.039 6.039 0 0 0 6.03-6.03V6.352a6.04 6.04 0 0 0-6.03-6.03H40.914l3.153 3.238h13.029a2.794 2.794 0 0 1 2.791 2.792v3.148a2.794 2.794 0 0 1-2.791 2.792H41.15a2.794 2.794 0 0 1-2.791-2.792v-5.94h1.71L36.893.322h-1.778v23.721h3.24v-9.196c.86.453 1.817.685 2.79.685h10.362l8.409 8.511h4.756l-8.357-8.51h.78ZM121.277 4.122l3.239 3.285V0h-3.239v4.122ZM121.277 24.046h3.239V11.678l-3.239-3.301v15.669ZM71.025 4.122l3.244 3.285V0h-3.244v4.122ZM71.025 24.046h3.244V11.678l-3.244-3.301v15.669ZM105.564.322H88.249l3.205 3.24h14.11a2.793 2.793 0 0 1 2.791 2.791v1.19h3.239v-1.19a6.04 6.04 0 0 0-6.03-6.03ZM93.29 13.903h15.061v4.304c0 .634-.209 1.229-.611 1.727l-.131.164 2.277 2.316.164-.181a5.986 5.986 0 0 0 1.54-4.02v-7.549H93.284v3.245l.006-.006Z"></path><path fill="#C4FF2E" d="M107.527 24.23H89.624a6.04 6.04 0 0 1-6.03-6.03V6.354c0-1.66.662-3.205 1.868-4.36l.074-.074.198.21 1.953 1.987.12.125-.086.079a2.79 2.79 0 0 0-.889 2.038v11.847a2.792 2.792 0 0 0 2.786 2.791h14.773l3.131 3.24.005-.006ZM134.197 24.044h3.244V8.2l-3.244-3.194v19.038ZM157.543 0v19.723L138.167 0h-4.53l23.634 24.044h3.51V0h-3.238Z"></path></svg>